<svg width="135" height="150" viewBox="0 0 135 150" fill="none" xmlns="http://www.w3.org/2000/svg">
<path d="M56.7148 8.31452C63.5132 0.872542 75.4886 2.00928 75.5599 10.1033L76.0878 70.0976C76.1433 76.3974 68.5597 82.5488 61.4381 82.086L61.0994 82.0586L10.1806 77.2254L9.8459 77.1889C2.90152 76.3166 1.03261 69.2679 6.32402 63.4756L56.7148 8.31452ZM23.8014 63.9313L59.6124 67.3305L59.2411 25.1365L23.8014 63.9313Z" fill="#3C36A8"/>
<path d="M78.2852 141.685C71.4868 149.127 59.5114 147.991 59.4402 139.897L58.9122 79.9024C58.8567 73.6026 66.4403 67.4512 73.562 67.914L73.9006 67.9414L124.819 72.7746L125.154 72.8111C132.098 73.6834 133.967 80.7321 128.676 86.5244L78.2852 141.685ZM111.199 86.0687L75.3876 82.6695L75.7589 124.863L111.199 86.0687Z" fill="#5AAEFF"/>
<path d="M97.3313 75.2363C97.3313 91.7658 83.8138 105.166 67.1392 105.166C50.4645 105.166 36.947 91.7658 36.947 75.2363C36.947 58.7069 50.4645 45.3071 67.1392 45.3071C83.8138 45.3071 97.3313 58.7069 97.3313 75.2363Z" fill="white"/>
<path d="M52.361 77.567C51.1362 79.1512 48.8591 79.4426 47.2749 78.2178L46.8684 77.9036C45.2842 76.6788 44.9929 74.4017 46.2176 72.8175L55.4555 60.8684C56.6803 59.2842 58.9574 58.9929 60.5416 60.2176L60.9481 60.5319C62.5323 61.7566 62.8236 64.0337 61.5989 65.6179L52.361 77.567Z" fill="#5AAEFF"/>
<path d="M52.361 73.0523C51.1362 71.4681 48.8591 71.1767 47.2749 72.4015L46.8684 72.7157C45.2842 73.9405 44.9929 76.2176 46.2176 77.8018L55.4555 89.7509C56.6803 91.3351 58.9574 91.6265 60.5416 90.4017L60.9481 90.0874C62.5323 88.8627 62.8236 86.5856 61.5989 85.0014L52.361 73.0523Z" fill="#5AAEFF"/>
<path d="M81.4555 77.567C82.6803 79.1512 84.9574 79.4426 86.5416 78.2178L86.9481 77.9036C88.5323 76.6788 88.8236 74.4017 87.5989 72.8175L78.361 60.8684C77.1362 59.2842 74.8591 58.9929 73.2749 60.2176L72.8684 60.5319C71.2842 61.7566 70.9929 64.0337 72.2176 65.6179L81.4555 77.567Z" fill="#3C36A8"/>
<path d="M81.4555 73.0523C82.6803 71.4681 84.9574 71.1767 86.5416 72.4015L86.9481 72.7157C88.5323 73.9405 88.8236 76.2176 87.5989 77.8018L78.361 89.7509C77.1362 91.3351 74.8591 91.6265 73.2749 90.4017L72.8684 90.0874C71.2842 88.8627 70.9929 86.5856 72.2176 85.0014L81.4555 73.0523Z" fill="#3C36A8"/>
</svg>
