<svg width="348" height="150" viewBox="0 0 348 150" fill="none" xmlns="http://www.w3.org/2000/svg">
<path d="M172.327 113.33C172.327 119.137 169.294 122.04 163.227 122.04C160.281 122.04 157.941 121.303 156.207 119.83C154.474 118.357 153.607 116.19 153.607 113.33V62.24C153.607 54.0933 154.691 47.5933 156.857 42.74C159.024 37.8 162.577 34.2033 167.517 31.95C172.457 29.6967 179.044 28.57 187.277 28.57C198.197 28.57 206.431 31.1267 211.977 36.24C217.611 41.2667 220.427 49.9333 220.427 62.24V113.33C220.427 119.137 217.394 122.04 211.327 122.04C208.381 122.04 206.041 121.303 204.307 119.83C202.574 118.357 201.707 116.19 201.707 113.33V62.24C201.707 55.8267 200.581 51.2767 198.327 48.59C196.161 45.8167 192.477 44.43 187.277 44.43C183.204 44.43 180.084 45.0367 177.917 46.25C175.751 47.4633 174.277 49.37 173.497 51.97C172.717 54.57 172.327 57.9933 172.327 62.24V113.33ZM247.793 122.04C241.38 122.04 238.173 119.137 238.173 113.33V37.28C238.173 34.2467 238.91 32.0367 240.383 30.65C241.857 29.2633 244.197 28.57 247.403 28.57C253.73 28.57 256.893 31.4733 256.893 37.28V113.33C256.893 116.277 256.157 118.487 254.683 119.96C253.297 121.347 251 122.04 247.793 122.04ZM281.121 121C278.695 121 276.745 120.133 275.271 118.4C273.798 116.58 273.061 114.63 273.061 112.55C273.061 111.51 273.235 110.47 273.581 109.43C273.928 108.39 274.708 106.657 275.921 104.23C276.788 102.583 277.958 100.547 279.431 98.12C280.905 95.6067 282.811 92.4433 285.151 88.63C287.578 84.8167 290.525 80.05 293.991 74.33C297.545 68.61 301.748 61.6767 306.601 53.53C308.335 50.4967 309.765 48.6767 310.891 48.07C312.018 47.4633 312.495 47.16 312.321 47.16H280.861C278.695 47.16 276.875 46.3367 275.401 44.69C274.015 42.9567 273.365 40.8333 273.451 38.32C273.625 35.5467 274.535 33.4667 276.181 32.08C277.915 30.6933 280.081 30 282.681 30H326.621C329.655 30 331.951 30.8667 333.511 32.6C335.071 34.3333 335.765 36.5 335.591 39.1C335.591 40.2267 334.941 41.9167 333.641 44.17C332.341 46.4233 330.565 49.4567 328.311 53.27L301.921 96.56C301.055 97.9467 300.058 99.1167 298.931 100.07C297.805 101.023 296.851 101.76 296.071 102.28C295.291 102.713 294.945 102.93 295.031 102.93H329.871C332.125 102.93 333.945 103.84 335.331 105.66C336.718 107.393 337.368 109.603 337.281 112.29C337.195 114.89 336.415 117.013 334.941 118.66C333.468 120.22 331.561 121 329.221 121H281.121Z" fill="url(#paint0_linear_4_31)"/>
<path d="M56.7148 8.31452C63.5132 0.872542 75.4886 2.00928 75.5599 10.1033L76.0878 70.0976C76.1433 76.3974 68.5597 82.5488 61.4381 82.086L61.0994 82.0586L10.1806 77.2254L9.8459 77.1889C2.90152 76.3166 1.03261 69.2679 6.32402 63.4756L56.7148 8.31452ZM23.8014 63.9313L59.6124 67.3305L59.2411 25.1365L23.8014 63.9313Z" fill="#3C36A8"/>
<path d="M78.2852 141.685C71.4868 149.127 59.5114 147.991 59.4402 139.897L58.9122 79.9024C58.8567 73.6026 66.4403 67.4512 73.562 67.914L73.9006 67.9414L124.819 72.7746L125.154 72.8111C132.098 73.6834 133.967 80.7321 128.676 86.5244L78.2852 141.685ZM111.199 86.0687L75.3876 82.6695L75.7589 124.863L111.199 86.0687Z" fill="#5AAEFF"/>
<path d="M97.3313 75.2363C97.3313 91.7658 83.8138 105.166 67.1392 105.166C50.4645 105.166 36.947 91.7658 36.947 75.2363C36.947 58.7069 50.4645 45.3071 67.1392 45.3071C83.8138 45.3071 97.3313 58.7069 97.3313 75.2363Z" fill="white"/>
<path d="M52.361 77.567C51.1362 79.1512 48.8591 79.4426 47.2749 78.2178L46.8684 77.9036C45.2842 76.6788 44.9929 74.4017 46.2176 72.8175L55.4555 60.8684C56.6803 59.2842 58.9574 58.9929 60.5416 60.2176L60.9481 60.5319C62.5323 61.7566 62.8236 64.0337 61.5989 65.6179L52.361 77.567Z" fill="#5AAEFF"/>
<path d="M52.361 73.0523C51.1362 71.4681 48.8591 71.1767 47.2749 72.4015L46.8684 72.7157C45.2842 73.9405 44.9929 76.2176 46.2176 77.8018L55.4555 89.7509C56.6803 91.3351 58.9574 91.6265 60.5416 90.4017L60.9481 90.0874C62.5323 88.8627 62.8236 86.5856 61.5989 85.0014L52.361 73.0523Z" fill="#5AAEFF"/>
<path d="M81.4555 77.567C82.6803 79.1512 84.9574 79.4426 86.5416 78.2178L86.9481 77.9036C88.5323 76.6788 88.8236 74.4017 87.5989 72.8175L78.361 60.8684C77.1362 59.2842 74.8591 58.9929 73.2749 60.2176L72.8684 60.5319C71.2842 61.7566 70.9929 64.0337 72.2176 65.6179L81.4555 77.567Z" fill="#3C36A8"/>
<path d="M81.4555 73.0523C82.6803 71.4681 84.9574 71.1767 86.5416 72.4015L86.9481 72.7157C88.5323 73.9405 88.8236 76.2176 87.5989 77.8018L78.361 89.7509C77.1362 91.3351 74.8591 91.6265 73.2749 90.4017L72.8684 90.0874C71.2842 88.8627 70.9929 86.5856 72.2176 85.0014L81.4555 73.0523Z" fill="#3C36A8"/>
<defs>
<linearGradient id="paint0_linear_4_31" x1="245" y1="22" x2="245" y2="129" gradientUnits="userSpaceOnUse">
<stop offset="0.9999" stop-color="#5AAEFF"/>
</linearGradient>
</defs>
</svg>
